<mxfile host="app.diagrams.net" modified="2024-05-26T10:10:59.898Z" agent="Mozilla/5.0 (Windows NT 10.0; Win64; x64) AppleWebKit/537.36 (KHTML, like Gecko) Chrome/125.0.0.0 Safari/537.36" etag="oN1YaUgMqvleYguanNhR" version="24.4.8" type="device">
  <diagram name="Страница — 1" id="xsZroW1yIk4SEdhqZ6r0">
    <mxGraphModel dx="1434" dy="738" grid="1" gridSize="10" guides="1" tooltips="1" connect="1" arrows="1" fold="1" page="1" pageScale="1" pageWidth="827" pageHeight="1169" math="0" shadow="0">
      <root>
        <mxCell id="0" />
        <mxCell id="1" parent="0" />
        <mxCell id="HSFJHwwEuYiNjXWyC9T3-29" value="" style="rounded=0;whiteSpace=wrap;html=1;" parent="1" vertex="1">
          <mxGeometry x="40" y="40" width="1070" height="710" as="geometry" />
        </mxCell>
        <mxCell id="HSFJHwwEuYiNjXWyC9T3-25" value="" style="rounded=0;whiteSpace=wrap;html=1;fillColor=none;" parent="1" vertex="1">
          <mxGeometry x="180" y="60" width="780" height="660" as="geometry" />
        </mxCell>
        <mxCell id="HSFJHwwEuYiNjXWyC9T3-2" style="edgeStyle=orthogonalEdgeStyle;rounded=0;orthogonalLoop=1;jettySize=auto;html=1;" parent="1" source="HSFJHwwEuYiNjXWyC9T3-1" target="HSFJHwwEuYiNjXWyC9T3-3" edge="1">
          <mxGeometry relative="1" as="geometry">
            <mxPoint x="270" y="160" as="targetPoint" />
          </mxGeometry>
        </mxCell>
        <mxCell id="HSFJHwwEuYiNjXWyC9T3-1" value="Входное изображение&lt;div style=&quot;font-size: 14px;&quot;&gt;(C, H, W)&lt;/div&gt;" style="rounded=1;whiteSpace=wrap;html=1;fontSize=14;fillColor=#d5e8d4;strokeColor=#82b366;" parent="1" vertex="1">
          <mxGeometry x="60" y="215.01" width="100" height="100" as="geometry" />
        </mxCell>
        <mxCell id="HSFJHwwEuYiNjXWyC9T3-27" style="edgeStyle=orthogonalEdgeStyle;rounded=0;orthogonalLoop=1;jettySize=auto;html=1;" parent="1" source="HSFJHwwEuYiNjXWyC9T3-3" target="HSFJHwwEuYiNjXWyC9T3-4" edge="1">
          <mxGeometry relative="1" as="geometry" />
        </mxCell>
        <mxCell id="HSFJHwwEuYiNjXWyC9T3-3" value="&lt;div style=&quot;text-align: center; font-size: 13px;&quot;&gt;&lt;span style=&quot;background-color: initial; font-size: 13px;&quot;&gt;Backbone (ResNet50)&lt;/span&gt;&lt;/div&gt;&lt;div style=&quot;font-size: 13px;&quot;&gt;&lt;div style=&quot;font-size: 13px;&quot;&gt;&lt;ul style=&quot;font-size: 13px;&quot;&gt;&lt;li style=&quot;font-size: 13px;&quot;&gt;conv1: 7x7 Conv, 64, stride 2&lt;/li&gt;&lt;li style=&quot;font-size: 13px;&quot;&gt;max pool 3x3, stride 2&lt;/li&gt;&lt;li style=&quot;font-size: 13px;&quot;&gt;conv2_x&amp;nbsp;&lt;/li&gt;&lt;ul style=&quot;font-size: 13px;&quot;&gt;&lt;li style=&quot;font-size: 13px;&quot;&gt;1x1 Conv, 64&lt;/li&gt;&lt;li style=&quot;font-size: 13px;&quot;&gt;3x3 Conv, 64&lt;/li&gt;&lt;li style=&quot;font-size: 13px;&quot;&gt;1x1 Conv, 256&lt;/li&gt;&lt;/ul&gt;&lt;li style=&quot;font-size: 13px;&quot;&gt;conv3_x&amp;nbsp;&lt;/li&gt;&lt;ul style=&quot;font-size: 13px;&quot;&gt;&lt;li style=&quot;font-size: 13px;&quot;&gt;1x1 Conv, 128&lt;/li&gt;&lt;li style=&quot;font-size: 13px;&quot;&gt;3x3 Conv, 128&lt;/li&gt;&lt;li style=&quot;font-size: 13px;&quot;&gt;1x1 Conv, 512&lt;/li&gt;&lt;/ul&gt;&lt;li style=&quot;font-size: 13px;&quot;&gt;conv4_x&amp;nbsp;&lt;/li&gt;&lt;ul style=&quot;font-size: 13px;&quot;&gt;&lt;li style=&quot;font-size: 13px;&quot;&gt;1x1 Conv, 256&lt;/li&gt;&lt;li style=&quot;font-size: 13px;&quot;&gt;3x3 Conv, 256&lt;/li&gt;&lt;li style=&quot;font-size: 13px;&quot;&gt;1x1 Conv, 1024&lt;/li&gt;&lt;/ul&gt;&lt;li style=&quot;font-size: 13px;&quot;&gt;conv5_x&lt;/li&gt;&lt;ul style=&quot;font-size: 13px;&quot;&gt;&lt;li style=&quot;font-size: 13px;&quot;&gt;1x1 Conv, 512&lt;/li&gt;&lt;li style=&quot;font-size: 13px;&quot;&gt;3x3 Conv, 512&lt;/li&gt;&lt;li style=&quot;font-size: 13px;&quot;&gt;1x1 Conv, 2048&lt;/li&gt;&lt;/ul&gt;&lt;/ul&gt;&lt;/div&gt;&lt;/div&gt;" style="rounded=1;whiteSpace=wrap;html=1;align=left;fontSize=13;fillColor=#dae8fc;strokeColor=#6c8ebf;" parent="1" vertex="1">
          <mxGeometry x="230" y="80" width="240" height="370" as="geometry" />
        </mxCell>
        <mxCell id="HSFJHwwEuYiNjXWyC9T3-28" style="edgeStyle=orthogonalEdgeStyle;rounded=0;orthogonalLoop=1;jettySize=auto;html=1;" parent="1" source="HSFJHwwEuYiNjXWyC9T3-4" target="HSFJHwwEuYiNjXWyC9T3-6" edge="1">
          <mxGeometry relative="1" as="geometry" />
        </mxCell>
        <mxCell id="HSFJHwwEuYiNjXWyC9T3-4" value="Feature Pyramid Network (FPN)&lt;div style=&quot;font-size: 14px;&quot;&gt;&lt;br style=&quot;font-size: 14px;&quot;&gt;&lt;/div&gt;&lt;div style=&quot;font-size: 14px;&quot;&gt;&lt;ul style=&quot;font-size: 14px;&quot;&gt;&lt;li style=&quot;text-align: left; font-size: 14px;&quot;&gt;conv: 3x3, 4 уровня&lt;/li&gt;&lt;li style=&quot;text-align: left; font-size: 14px;&quot;&gt;up-sampling: 4 уровня&lt;/li&gt;&lt;/ul&gt;&lt;/div&gt;" style="rounded=1;whiteSpace=wrap;html=1;fontSize=14;fillColor=#dae8fc;strokeColor=#6c8ebf;" parent="1" vertex="1">
          <mxGeometry x="520" y="168.76" width="160" height="192.5" as="geometry" />
        </mxCell>
        <mxCell id="HSFJHwwEuYiNjXWyC9T3-10" style="edgeStyle=orthogonalEdgeStyle;rounded=0;orthogonalLoop=1;jettySize=auto;html=1;" parent="1" source="HSFJHwwEuYiNjXWyC9T3-6" target="HSFJHwwEuYiNjXWyC9T3-8" edge="1">
          <mxGeometry relative="1" as="geometry">
            <Array as="points">
              <mxPoint x="820" y="490" />
              <mxPoint x="340" y="490" />
            </Array>
          </mxGeometry>
        </mxCell>
        <mxCell id="HSFJHwwEuYiNjXWyC9T3-6" value="Region Proposal Network (RPN)&lt;div style=&quot;font-size: 15px;&quot;&gt;&lt;br style=&quot;font-size: 15px;&quot;&gt;&lt;/div&gt;&lt;div style=&quot;font-size: 15px;&quot;&gt;&lt;ul style=&quot;font-size: 15px;&quot;&gt;&lt;li style=&quot;text-align: left; font-size: 15px;&quot;&gt;conv: 3x3, 1 слой, ReLU&lt;/li&gt;&lt;li style=&quot;text-align: left; font-size: 15px;&quot;&gt;classification - Softmax&lt;/li&gt;&lt;/ul&gt;&lt;/div&gt;" style="rounded=1;whiteSpace=wrap;html=1;align=center;fontSize=15;fillColor=#dae8fc;strokeColor=#6c8ebf;" parent="1" vertex="1">
          <mxGeometry x="730" y="168.76" width="180" height="192.5" as="geometry" />
        </mxCell>
        <mxCell id="HSFJHwwEuYiNjXWyC9T3-11" style="edgeStyle=orthogonalEdgeStyle;rounded=0;orthogonalLoop=1;jettySize=auto;html=1;" parent="1" source="HSFJHwwEuYiNjXWyC9T3-8" target="HSFJHwwEuYiNjXWyC9T3-9" edge="1">
          <mxGeometry relative="1" as="geometry" />
        </mxCell>
        <mxCell id="HSFJHwwEuYiNjXWyC9T3-8" value="Keypoint Head&lt;div style=&quot;font-size: 15px;&quot;&gt;&lt;br style=&quot;font-size: 15px;&quot;&gt;&lt;/div&gt;&lt;div style=&quot;font-size: 15px;&quot;&gt;&lt;ul style=&quot;font-size: 15px;&quot;&gt;&lt;li style=&quot;text-align: left; font-size: 15px;&quot;&gt;conv: 3x3, 8 слоев, ReLU&lt;/li&gt;&lt;li style=&quot;text-align: left; font-size: 15px;&quot;&gt;transposed conv: 4x4 ConvTranspose2d, 1 слой&lt;/li&gt;&lt;/ul&gt;&lt;/div&gt;" style="rounded=1;whiteSpace=wrap;html=1;align=center;fontSize=15;fillColor=#ffe6cc;strokeColor=#d79b00;" parent="1" vertex="1">
          <mxGeometry x="230" y="540.01" width="230" height="141.25" as="geometry" />
        </mxCell>
        <mxCell id="HSFJHwwEuYiNjXWyC9T3-13" style="edgeStyle=orthogonalEdgeStyle;rounded=0;orthogonalLoop=1;jettySize=auto;html=1;" parent="1" source="HSFJHwwEuYiNjXWyC9T3-9" target="HSFJHwwEuYiNjXWyC9T3-12" edge="1">
          <mxGeometry relative="1" as="geometry" />
        </mxCell>
        <mxCell id="HSFJHwwEuYiNjXWyC9T3-9" value="Keypoint Predictor&lt;div style=&quot;font-size: 15px;&quot;&gt;&lt;br style=&quot;font-size: 15px;&quot;&gt;&lt;/div&gt;&lt;div style=&quot;font-size: 15px;&quot;&gt;&lt;ul style=&quot;font-size: 15px;&quot;&gt;&lt;li style=&quot;text-align: left; font-size: 15px;&quot;&gt;transposed conv: 4x4, 1 слой&lt;/li&gt;&lt;li style=&quot;text-align: left; font-size: 15px;&quot;&gt;билинейная интерполяция&lt;/li&gt;&lt;li style=&quot;text-align: left; font-size: 15px;&quot;&gt;max интенсивности&lt;/li&gt;&lt;/ul&gt;&lt;/div&gt;" style="rounded=1;whiteSpace=wrap;html=1;align=center;fontSize=15;fillColor=#ffe6cc;strokeColor=#d79b00;" parent="1" vertex="1">
          <mxGeometry x="590" y="540.01" width="260" height="141.25" as="geometry" />
        </mxCell>
        <mxCell id="HSFJHwwEuYiNjXWyC9T3-12" value="Ключевые&amp;nbsp;&lt;div style=&quot;font-size: 16px;&quot;&gt;точки&lt;/div&gt;" style="rounded=1;whiteSpace=wrap;html=1;fontSize=16;fillColor=#d5e8d4;strokeColor=#82b366;" parent="1" vertex="1">
          <mxGeometry x="990" y="560.63" width="100" height="100" as="geometry" />
        </mxCell>
        <mxCell id="HSFJHwwEuYiNjXWyC9T3-26" value="Архитектура модели" style="text;html=1;align=center;verticalAlign=middle;whiteSpace=wrap;rounded=0;fontSize=18;fontStyle=1" parent="1" vertex="1">
          <mxGeometry x="790" y="80" width="140" height="50" as="geometry" />
        </mxCell>
        <mxCell id="HSFJHwwEuYiNjXWyC9T3-30" value="" style="shape=curlyBracket;whiteSpace=wrap;html=1;rounded=1;flipH=1;labelPosition=right;verticalLabelPosition=middle;align=left;verticalAlign=middle;size=0.5;" parent="1" vertex="1">
          <mxGeometry x="410" y="180" width="10" height="50" as="geometry" />
        </mxCell>
        <mxCell id="HSFJHwwEuYiNjXWyC9T3-32" value="" style="shape=curlyBracket;whiteSpace=wrap;html=1;rounded=1;flipH=1;labelPosition=right;verticalLabelPosition=middle;align=left;verticalAlign=middle;size=0.5;" parent="1" vertex="1">
          <mxGeometry x="410" y="240.01" width="10" height="50" as="geometry" />
        </mxCell>
        <mxCell id="HSFJHwwEuYiNjXWyC9T3-33" value="" style="shape=curlyBracket;whiteSpace=wrap;html=1;rounded=1;flipH=1;labelPosition=right;verticalLabelPosition=middle;align=left;verticalAlign=middle;size=0.5;" parent="1" vertex="1">
          <mxGeometry x="410" y="300" width="10" height="50" as="geometry" />
        </mxCell>
        <mxCell id="HSFJHwwEuYiNjXWyC9T3-34" value="" style="shape=curlyBracket;whiteSpace=wrap;html=1;rounded=1;flipH=1;labelPosition=right;verticalLabelPosition=middle;align=left;verticalAlign=middle;size=0.5;" parent="1" vertex="1">
          <mxGeometry x="410" y="365" width="10" height="50" as="geometry" />
        </mxCell>
        <mxCell id="HSFJHwwEuYiNjXWyC9T3-35" value="x3" style="text;html=1;align=center;verticalAlign=middle;whiteSpace=wrap;rounded=0;" parent="1" vertex="1">
          <mxGeometry x="420" y="195.01" width="20" height="20" as="geometry" />
        </mxCell>
        <mxCell id="HSFJHwwEuYiNjXWyC9T3-37" value="x4" style="text;html=1;align=center;verticalAlign=middle;whiteSpace=wrap;rounded=0;" parent="1" vertex="1">
          <mxGeometry x="420" y="255.01" width="20" height="20" as="geometry" />
        </mxCell>
        <mxCell id="HSFJHwwEuYiNjXWyC9T3-38" value="x6" style="text;html=1;align=center;verticalAlign=middle;whiteSpace=wrap;rounded=0;" parent="1" vertex="1">
          <mxGeometry x="420" y="315.01" width="20" height="20" as="geometry" />
        </mxCell>
        <mxCell id="HSFJHwwEuYiNjXWyC9T3-39" value="x3" style="text;html=1;align=center;verticalAlign=middle;whiteSpace=wrap;rounded=0;" parent="1" vertex="1">
          <mxGeometry x="420" y="380" width="20" height="20" as="geometry" />
        </mxCell>
      </root>
    </mxGraphModel>
  </diagram>
</mxfile>
